<?xml version="1.0" encoding="UTF-8" standalone="no"?>
<svg width="310px" height="355px" viewBox="0 0 310 355" version="1.1" xmlns="http://www.w3.org/2000/svg" xmlns:xlink="http://www.w3.org/1999/xlink">
    <!-- Generator: Sketch 3.8.3 (29802) - http://www.bohemiancoding.com/sketch -->
    <title>Group</title>
    <desc>Created with Sketch.</desc>
    <defs></defs>
    <g id="Page-1" stroke="none" stroke-width="1" fill="none" fill-rule="evenodd">
        <g id="Group">
            <path d="M206.098892,354.904123 L206.12527,354.950012 L309.200012,295.177597 L255.349497,263.950012 L206.117748,292.499204 L157.101186,264.074799 L157.209381,207.298351 L206.433444,179.003758 L255.793889,207.627579 L309.644404,176.399994 L206.558828,116.613793 L103.276579,175.981692 L54.0939867,147.461006 L54.2021814,90.6845587 L103.426244,62.3899654 L152.78669,91.0137865 L206.637204,59.7862013 L103.551628,0 L0.233580869,59.3795748 L0,178.547403 L103.122167,238.237315 L103.0072,295.161196 L206.081942,354.933611 L206.098892,354.904123 Z" id="Combined-Shape" fill="#1079FE"></path>
            <rect id="Rectangle-1" fill="#1079FE" transform="translate(103.549038, 238.013030) rotate(30.000000) translate(-103.549038, -238.013030) " x="102.049038" y="237.51303" width="3" height="1"></rect>
            <polygon id="Combined-Shape" fill="#4297FF" transform="translate(148.004162, 189.221644) rotate(480.000000) translate(-148.004162, -189.221644) " points="109.929419 143.721644 83.004162 190.563022 159.153647 234.721644 213.004162 203.494059"></polygon>
            <path d="M206.600006,179.100346 L255.793889,207.627579 L309.644404,176.399994 L206.600006,116.637675 L206.600006,179.100346 Z M206.600006,59.8077724 L206.637204,59.7862013 L206.600006,59.7646275 L206.600006,59.8077724 Z" id="Combined-Shape" fill="#7AB7FF"></path>
            <path d="M165.971726,269.21877 L157.101186,264.074799 L157.209368,207.305089 L103.12157,238.532693 L103.0072,295.161196 L112.002847,300.377717 L165.971726,269.21877 Z M159.861063,205.774132 L176.808982,196.032261 L176.790356,196 L159.861063,205.774132 Z" id="Combined-Shape" fill="#7AB7FF"></path>
            <path d="M157.152781,237 L157.101186,264.074799 L206.117748,292.499204 L255.349497,263.950012 L309.200012,295.177597 L206.12527,354.950012 L206.098892,354.904123 L206.081942,354.933611 L110,299.216278 L110,237 L157.152781,237 Z" id="Combined-Shape" fill="#7AB7FF"></path>
            <path d="M206.43777,179.018212 L206.713547,178.859692 L206.594922,116.609985 L152.350006,147.790627 L206.43777,179.018212 Z" id="Combined-Shape" fill="#7AB7FF"></path>
        </g>
    </g>
</svg>